<svg width="212" height="20" viewBox="0 0 212 20" fill="none" xmlns="http://www.w3.org/2000/svg">
<path d="M62 16.4142V1.38139H72.6331V4.07307H65.3357V16.4142H62ZM65.3357 10.4214V7.72969H71.5862V10.4214H65.3357Z" fill="black"/>
<path d="M86.5844 16.4142V5.3021H89.2632L89.5095 6.73428H89.6737C89.9885 6.18579 90.4059 5.78627 90.9259 5.53572C91.4459 5.2784 92.0172 5.14974 92.6399 5.14974C92.8109 5.14974 92.9752 5.15652 93.1325 5.17006C93.2899 5.1836 93.4302 5.20392 93.5533 5.231V8.1563C93.3823 8.12244 93.1975 8.10213 92.9991 8.09536C92.8075 8.08181 92.6228 8.07504 92.4449 8.07504C92.1233 8.07504 91.7983 8.11567 91.4698 8.19693C91.1414 8.27142 90.8369 8.38992 90.5564 8.55243C90.2758 8.70818 90.0398 8.90117 89.8482 9.1314V16.4142H86.5844Z" fill="black"/>
<path d="M95.2499 16.4142V5.3021H97.9492L98.1648 6.43972H98.3187C98.7156 6.00634 99.1775 5.68131 99.7043 5.46462C100.238 5.24116 100.826 5.12943 101.47 5.12943C102.133 5.12943 102.729 5.27163 103.256 5.55604C103.789 5.83367 104.207 6.28736 104.508 6.91711C104.816 7.54009 104.97 8.36622 104.97 9.39549V16.4142H101.767V9.66973C101.767 9.00613 101.641 8.54905 101.388 8.2985C101.141 8.04118 100.799 7.91253 100.361 7.91253C100.142 7.91253 99.9164 7.94638 99.6838 8.0141C99.458 8.08181 99.2425 8.18339 99.0372 8.31882C98.8388 8.45425 98.6643 8.62692 98.5137 8.83684V16.4142H95.2499ZM108.151 16.4142V9.66973C108.151 9.00613 108.014 8.54905 107.741 8.2985C107.467 8.04118 107.115 7.91253 106.684 7.91253C106.444 7.91253 106.205 7.94977 105.965 8.02425C105.732 8.09197 105.51 8.20031 105.298 8.34929C105.086 8.49826 104.901 8.69125 104.744 8.92825L104.097 6.8257C104.597 6.22303 105.161 5.78965 105.791 5.52556C106.42 5.26147 107.053 5.12943 107.689 5.12943C108.408 5.12943 109.048 5.27163 109.609 5.55604C110.17 5.84044 110.611 6.30429 110.933 6.94758C111.254 7.59088 111.415 8.4407 111.415 9.49706V16.4142H108.151Z" fill="black"/>
<path d="M118.542 16.5868C118.125 16.5868 117.667 16.5733 117.167 16.5462C116.675 16.5259 116.175 16.492 115.669 16.4446C115.169 16.404 114.701 16.3532 114.263 16.2923V1.71658C114.735 1.61501 115.241 1.52698 115.782 1.45249C116.322 1.37123 116.876 1.31029 117.444 1.26966C118.019 1.22226 118.584 1.19856 119.138 1.19856C120.643 1.19856 121.871 1.35431 122.822 1.6658C123.78 1.97051 124.485 2.43436 124.937 3.05734C125.388 3.67355 125.614 4.44889 125.614 5.38336C125.614 5.93863 125.505 6.44988 125.286 6.91711C125.074 7.37757 124.762 7.76694 124.352 8.0852C123.941 8.40346 123.442 8.62015 122.853 8.73526L122.863 8.60322C123.828 8.73865 124.595 9.1077 125.162 9.71036C125.737 10.3063 126.025 11.1358 126.025 12.1989C126.025 12.8964 125.891 13.5193 125.624 14.0678C125.358 14.6096 124.93 15.07 124.341 15.4492C123.753 15.8217 122.98 16.1061 122.022 16.3024C121.071 16.492 119.911 16.5868 118.542 16.5868ZM119.435 14.1796C120.325 14.1796 121.023 14.1017 121.529 13.946C122.042 13.7902 122.405 13.5566 122.617 13.2451C122.836 12.9336 122.946 12.5375 122.946 12.0567C122.946 11.3321 122.716 10.804 122.258 10.4722C121.806 10.1336 121.06 9.9643 120.02 9.9643H117.167V7.49608H119.702C120.38 7.49608 120.92 7.42498 121.324 7.28277C121.734 7.1338 122.029 6.91711 122.207 6.63271C122.391 6.3483 122.484 5.98941 122.484 5.55604C122.484 4.87211 122.265 4.37779 121.827 4.07307C121.389 3.76158 120.633 3.60584 119.559 3.60584C119.169 3.60584 118.809 3.62277 118.481 3.65662C118.152 3.68371 117.831 3.72434 117.516 3.77851V14.0882C117.865 14.122 118.19 14.1457 118.491 14.1593C118.792 14.1728 119.107 14.1796 119.435 14.1796Z" fill="black"/>
<path d="M131.914 16.6072C131.168 16.6072 130.504 16.465 129.923 16.1806C129.341 15.8894 128.883 15.4255 128.547 14.789C128.212 14.1525 128.044 13.3094 128.044 12.2598V5.3021H131.318V12.0364C131.318 12.7068 131.459 13.1706 131.739 13.4279C132.027 13.6852 132.4 13.8139 132.858 13.8139C133.084 13.8139 133.32 13.7834 133.566 13.7225C133.819 13.6548 134.059 13.5532 134.285 13.4178C134.51 13.2823 134.709 13.1131 134.88 12.9099V5.3021H138.144V16.4142H135.455L135.229 15.2969H135.085C134.661 15.7235 134.179 16.0485 133.638 16.272C133.097 16.4954 132.523 16.6072 131.914 16.6072Z" fill="black"/>
<path d="M140.932 16.4142V5.3021H144.206V16.4142H140.932ZM142.564 3.68709C141.879 3.68709 141.37 3.53812 141.034 3.24017C140.706 2.94223 140.542 2.52916 140.542 2.00099C140.542 1.45926 140.706 1.04281 141.034 0.751639C141.37 0.453692 141.879 0.304719 142.564 0.304719C143.255 0.304719 143.765 0.453692 144.093 0.751639C144.421 1.04281 144.586 1.45926 144.586 2.00099C144.586 2.52916 144.421 2.94223 144.093 3.24017C143.765 3.53812 143.255 3.68709 142.564 3.68709Z" fill="black"/>
<path d="M146.991 16.4142V0H150.255V16.4142H146.991Z" fill="black"/>
<path d="M157.146 16.6072C156.318 16.6072 155.552 16.4209 154.847 16.0485C154.149 15.6761 153.588 15.0836 153.164 14.271C152.746 13.4584 152.538 12.3987 152.538 11.0918C152.538 9.79839 152.77 8.70818 153.236 7.82111C153.701 6.93404 154.385 6.26366 155.288 5.80997C156.198 5.3495 157.324 5.11927 158.665 5.11927C158.891 5.11927 159.113 5.12943 159.332 5.14974C159.558 5.16329 159.767 5.18022 159.958 5.20053V0H163.232V16.4142H160.482L160.287 15.2461H160.133C159.811 15.6524 159.397 15.9808 158.891 16.2313C158.391 16.4819 157.81 16.6072 157.146 16.6072ZM158.111 13.9663C158.446 13.9663 158.778 13.9053 159.106 13.7834C159.442 13.6615 159.726 13.4719 159.958 13.2146V7.70938C159.78 7.66875 159.575 7.63828 159.342 7.61796C159.11 7.59088 158.881 7.57733 158.655 7.57733C157.717 7.57733 157.013 7.82788 156.541 8.32897C156.068 8.82329 155.832 9.65958 155.832 10.8378C155.832 11.6436 155.928 12.2734 156.12 12.7271C156.311 13.1808 156.575 13.5024 156.91 13.692C157.252 13.8748 157.652 13.9663 158.111 13.9663Z" fill="black"/>
<path d="M171.682 16.6275C170.272 16.6275 169.112 16.4277 168.202 16.0282C167.292 15.6287 166.615 15.0023 166.17 14.1491C165.732 13.2959 165.513 12.1955 165.513 10.848C165.513 9.62233 165.715 8.5829 166.119 7.72969C166.529 6.87648 167.121 6.2298 167.894 5.78965C168.674 5.3495 169.619 5.12943 170.727 5.12943C171.788 5.12943 172.681 5.35289 173.406 5.79981C174.131 6.23996 174.679 6.89341 175.048 7.76017C175.418 8.62692 175.602 9.69005 175.602 10.9496V11.7926H167.381V9.93382H173.077L172.554 10.1268C172.554 9.39549 172.486 8.81314 172.349 8.37976C172.212 7.94638 172.003 7.63828 171.723 7.45545C171.449 7.27262 171.107 7.1812 170.696 7.1812C170.279 7.1812 169.926 7.27262 169.639 7.45545C169.359 7.63828 169.143 7.94638 168.993 8.37976C168.849 8.80637 168.777 9.38533 168.777 10.1167V11.4168C168.777 12.1007 168.876 12.6458 169.075 13.0521C169.28 13.4516 169.625 13.7394 170.111 13.9155C170.604 14.0915 171.281 14.1796 172.143 14.1796C172.581 14.1796 173.04 14.1491 173.519 14.0882C174.005 14.0204 174.49 13.9324 174.976 13.8241V16.2517C174.381 16.3871 173.813 16.4819 173.272 16.5361C172.739 16.597 172.208 16.6275 171.682 16.6275Z" fill="black"/>
<path d="M177.759 16.4142V5.3021H180.438L180.684 6.73428H180.848C181.163 6.18579 181.58 5.78627 182.1 5.53572C182.62 5.2784 183.192 5.14974 183.814 5.14974C183.985 5.14974 184.15 5.15652 184.307 5.17006C184.464 5.1836 184.605 5.20392 184.728 5.231V8.1563C184.557 8.12244 184.372 8.10213 184.174 8.09536C183.982 8.08181 183.797 8.07504 183.619 8.07504C183.298 8.07504 182.973 8.11567 182.644 8.19693C182.316 8.27142 182.011 8.38992 181.731 8.55243C181.45 8.70818 181.214 8.90117 181.023 9.1314V16.4142H177.759Z" fill="black"/>
<g filter="url(#filter0_d_704_541)">
<rect x="73.3672" y="5.69971" width="11.4328" height="11.3144" rx="5.65722" fill="white"/>
<rect x="74.3672" y="6.69971" width="9.43283" height="9.31444" rx="4.65722" stroke="#0B0C0C" stroke-width="2"/>
<path d="M81.0723 11.3711C81.0723 12.4757 80.1768 13.3711 79.0723 13.3711C77.9677 13.3711 77.0723 12.4757 77.0723 11.3711C77.0723 10.2665 77.9677 9.37109 79.0723 9.37109C80.1768 9.37109 81.0723 10.2665 81.0723 11.3711Z" fill="black"/>
</g>
<path d="M185.524 16.587C185.317 16.587 185.15 16.5278 185.022 16.4096C184.899 16.2913 184.837 16.1316 184.837 15.9305C184.837 15.7294 184.899 15.5697 185.022 15.4514C185.146 15.3331 185.313 15.274 185.524 15.274C185.731 15.274 185.897 15.3351 186.02 15.4573C186.148 15.5756 186.211 15.7333 186.211 15.9305C186.211 16.1276 186.148 16.2873 186.02 16.4096C185.893 16.5278 185.727 16.587 185.524 16.587Z" fill="black"/>
<path d="M189.933 19.2307C189.634 19.2307 189.313 19.2051 188.971 19.1538C188.632 19.1065 188.315 19.0355 188.02 18.9409V18.1484C188.359 18.2509 188.682 18.3258 188.989 18.3731C189.299 18.4244 189.596 18.45 189.879 18.45C190.58 18.45 191.098 18.3002 191.433 18.0005C191.768 17.7048 191.935 17.1903 191.935 16.4569V15.8299H191.881C191.686 16.0547 191.435 16.238 191.128 16.38C190.825 16.5219 190.479 16.5929 190.088 16.5929C189.638 16.5929 189.226 16.4904 188.851 16.2854C188.477 16.0764 188.176 15.7412 187.949 15.2799C187.722 14.8146 187.608 14.1976 187.608 13.4287C187.608 12.2774 187.885 11.4178 188.439 10.8501C188.997 10.2783 189.815 9.99247 190.895 9.99247C191.118 9.99247 191.345 10.0043 191.576 10.028C191.811 10.0516 192.041 10.0851 192.264 10.1285C192.487 10.1719 192.696 10.2231 192.891 10.2823V16.3149C192.891 17.3559 192.644 18.1011 192.15 18.5506C191.656 19.004 190.917 19.2307 189.933 19.2307ZM190.369 15.7826C190.66 15.7826 190.945 15.7215 191.224 15.5993C191.507 15.4771 191.744 15.2898 191.935 15.0374V10.8974C191.792 10.8619 191.622 10.8323 191.427 10.8086C191.232 10.781 191.029 10.7672 190.817 10.7672C190.092 10.7672 189.538 10.9683 189.156 11.3705C188.774 11.7687 188.582 12.4252 188.582 13.34C188.582 13.9748 188.66 14.4696 188.815 14.8245C188.971 15.1794 189.182 15.4278 189.449 15.5697C189.72 15.7117 190.027 15.7826 190.369 15.7826Z" fill="black"/>
<path d="M197.462 16.6225C196.904 16.6225 196.418 16.5081 196.004 16.2794C195.59 16.0468 195.269 15.688 195.042 15.203C194.815 14.7141 194.701 14.0813 194.701 13.3045C194.701 12.5356 194.813 11.9068 195.036 11.4178C195.263 10.9289 195.584 10.5701 195.998 10.3414C196.412 10.1088 196.9 9.99247 197.462 9.99247C198.024 9.99247 198.512 10.1088 198.926 10.3414C199.341 10.5701 199.66 10.9289 199.883 11.4178C200.11 11.9028 200.223 12.5317 200.223 13.3045C200.223 14.0734 200.108 14.7023 199.877 15.1912C199.65 15.6801 199.329 16.0409 198.914 16.2735C198.504 16.5062 198.02 16.6225 197.462 16.6225ZM197.462 15.8536C197.829 15.8536 198.146 15.7747 198.412 15.617C198.679 15.4593 198.885 15.1971 199.028 14.8304C199.175 14.4598 199.249 13.9571 199.249 13.3223C199.249 12.6756 199.175 12.167 199.028 11.7963C198.885 11.4218 198.677 11.1576 198.406 11.0038C198.14 10.8461 197.825 10.7672 197.462 10.7672C197.096 10.7672 196.779 10.8461 196.512 11.0038C196.245 11.1576 196.038 11.4198 195.89 11.7904C195.747 12.1571 195.675 12.6579 195.675 13.2927C195.675 13.9354 195.747 14.444 195.89 14.8186C196.038 15.1892 196.245 15.4554 196.512 15.617C196.779 15.7747 197.096 15.8536 197.462 15.8536Z" fill="black"/>
<path d="M203.533 16.5101L201.077 10.093H202.099L204.233 15.8299H204.113L206.252 10.093H207.215L204.758 16.5101H203.533Z" fill="black"/>
<path d="M211.002 16.6225C210.34 16.6225 209.827 16.4549 209.46 16.1198C209.093 15.7807 208.91 15.2405 208.91 14.4992V10.093L209.066 7.75684H209.866V14.3454C209.866 14.8856 209.978 15.2641 210.201 15.481C210.428 15.6979 210.765 15.8063 211.211 15.8063C211.331 15.8063 211.454 15.7984 211.582 15.7826C211.709 15.7629 211.848 15.7373 212 15.7057V16.5042C211.841 16.5436 211.677 16.5732 211.51 16.5929C211.342 16.6126 211.173 16.6225 211.002 16.6225ZM207.691 10.8737V10.093H211.904V10.8737H207.691Z" fill="black"/>
<path d="M0.845 13V5.71C1.15167 5.65 1.45833 5.60333 1.765 5.57C2.075 5.53667 2.40167 5.52 2.745 5.52C3.72167 5.52 4.46 5.72333 4.96 6.13C5.46333 6.53333 5.715 7.17167 5.715 8.045C5.715 8.865 5.465 9.49167 4.965 9.925C4.46833 10.3583 3.69 10.575 2.63 10.575C2.45667 10.575 2.29333 10.5717 2.14 10.565C1.99 10.555 1.82833 10.5433 1.655 10.53V13H0.845ZM2.645 9.915C3.44167 9.915 4.01833 9.76333 4.375 9.46C4.73167 9.15333 4.91 8.68667 4.91 8.06C4.91 7.40333 4.735 6.92667 4.385 6.63C4.03833 6.33 3.51 6.18 2.8 6.18C2.58333 6.18 2.38167 6.18833 2.195 6.205C2.01167 6.21833 1.83167 6.24 1.655 6.27V9.855C1.81833 9.87833 1.97833 9.895 2.135 9.905C2.295 9.91167 2.465 9.915 2.645 9.915ZM8.86398 13.095C8.39732 13.095 7.99065 12.9983 7.64398 12.805C7.29732 12.6083 7.02898 12.305 6.83898 11.895C6.64898 11.4817 6.55398 10.9467 6.55398 10.29C6.55398 9.64 6.64732 9.10833 6.83398 8.695C7.02398 8.28167 7.29232 7.97833 7.63898 7.785C7.98565 7.58833 8.39398 7.49 8.86398 7.49C9.33398 7.49 9.74232 7.58833 10.089 7.785C10.4357 7.97833 10.7023 8.28167 10.889 8.695C11.079 9.105 11.174 9.63667 11.174 10.29C11.174 10.94 11.0773 11.4717 10.884 11.885C10.694 12.2983 10.4257 12.6033 10.079 12.8C9.73565 12.9967 9.33065 13.095 8.86398 13.095ZM8.86398 12.445C9.17065 12.445 9.43565 12.3783 9.65898 12.245C9.88232 12.1117 10.054 11.89 10.174 11.58C10.2973 11.2667 10.359 10.8417 10.359 10.305C10.359 9.75833 10.2973 9.32833 10.174 9.015C10.054 8.69833 9.88065 8.475 9.65398 8.345C9.43065 8.21167 9.16732 8.145 8.86398 8.145C8.55732 8.145 8.29232 8.21167 8.06898 8.345C7.84565 8.475 7.67232 8.69667 7.54898 9.01C7.42898 9.32 7.36898 9.74333 7.36898 10.28C7.36898 10.8233 7.42898 11.2533 7.54898 11.57C7.67232 11.8833 7.84565 12.1083 8.06898 12.245C8.29232 12.3783 8.55732 12.445 8.86398 12.445ZM13.4134 13L11.8234 7.575H12.6084L13.9634 12.305H13.8834L15.2984 7.575H16.2434L17.6584 12.305H17.5684L18.9284 7.575H19.6834L18.1034 13H17.1584L15.7184 8.215H15.8084L14.3584 13H13.4134ZM23.0009 13.095C22.4376 13.095 21.9643 13 21.5809 12.81C21.2009 12.6167 20.9143 12.315 20.7209 11.905C20.5276 11.4917 20.4309 10.9517 20.4309 10.285C20.4309 9.64833 20.5193 9.12333 20.6959 8.71C20.8759 8.29667 21.1293 7.99 21.4559 7.79C21.7859 7.59 22.1759 7.49 22.6259 7.49C23.0693 7.49 23.4459 7.59167 23.7559 7.795C24.0693 7.995 24.3076 8.30333 24.4709 8.72C24.6343 9.13333 24.7159 9.66167 24.7159 10.305V10.55H20.8659V10.005H24.1259L23.9509 10.125C23.9509 9.61833 23.8976 9.215 23.7909 8.915C23.6876 8.615 23.5359 8.4 23.3359 8.27C23.1393 8.13667 22.8993 8.07 22.6159 8.07C22.3359 8.07 22.0926 8.135 21.8859 8.265C21.6793 8.395 21.5193 8.61 21.4059 8.91C21.2959 9.21 21.2409 9.615 21.2409 10.125V10.405C21.2409 10.905 21.3076 11.305 21.4409 11.605C21.5776 11.9017 21.7826 12.1167 22.0559 12.25C22.3293 12.38 22.6759 12.445 23.0959 12.445C23.3026 12.445 23.5159 12.4267 23.7359 12.39C23.9593 12.35 24.1959 12.295 24.4459 12.225V12.88C24.1859 12.9533 23.9376 13.0067 23.7009 13.04C23.4676 13.0767 23.2343 13.095 23.0009 13.095ZM25.8624 13V7.575H26.5324L26.5974 8.3H26.6474C26.8341 8.04333 27.0674 7.85 27.3474 7.72C27.6308 7.58667 27.9258 7.52 28.2324 7.52C28.3158 7.52 28.3908 7.52333 28.4574 7.53C28.5274 7.53667 28.5958 7.54667 28.6624 7.56V8.3C28.5858 8.28667 28.5091 8.27833 28.4324 8.275C28.3591 8.27167 28.2791 8.27 28.1924 8.27C28.0158 8.27 27.8308 8.29833 27.6374 8.355C27.4474 8.40833 27.2674 8.49333 27.0974 8.61C26.9274 8.72333 26.7824 8.86667 26.6624 9.04V13H25.8624ZM31.624 13.095C31.0607 13.095 30.5873 13 30.204 12.81C29.824 12.6167 29.5373 12.315 29.344 11.905C29.1507 11.4917 29.054 10.9517 29.054 10.285C29.054 9.64833 29.1423 9.12333 29.319 8.71C29.499 8.29667 29.7523 7.99 30.079 7.79C30.409 7.59 30.799 7.49 31.249 7.49C31.6923 7.49 32.069 7.59167 32.379 7.795C32.6923 7.995 32.9307 8.30333 33.094 8.72C33.2573 9.13333 33.339 9.66167 33.339 10.305V10.55H29.489V10.005H32.749L32.574 10.125C32.574 9.61833 32.5207 9.215 32.414 8.915C32.3107 8.615 32.159 8.4 31.959 8.27C31.7623 8.13667 31.5223 8.07 31.239 8.07C30.959 8.07 30.7157 8.135 30.509 8.265C30.3023 8.395 30.1423 8.61 30.029 8.91C29.919 9.21 29.864 9.615 29.864 10.125V10.405C29.864 10.905 29.9307 11.305 30.064 11.605C30.2007 11.9017 30.4057 12.1167 30.679 12.25C30.9523 12.38 31.299 12.445 31.719 12.445C31.9257 12.445 32.139 12.4267 32.359 12.39C32.5823 12.35 32.819 12.295 33.069 12.225V12.88C32.809 12.9533 32.5607 13.0067 32.324 13.04C32.0907 13.0767 31.8573 13.095 31.624 13.095ZM36.3355 13.095C35.9421 13.095 35.5838 13.0067 35.2605 12.83C34.9371 12.65 34.6788 12.3633 34.4855 11.97C34.2955 11.5767 34.2005 11.0533 34.2005 10.4C34.2005 9.74667 34.3038 9.205 34.5105 8.775C34.7205 8.345 35.0288 8.02333 35.4355 7.81C35.8421 7.59667 36.3421 7.49 36.9355 7.49C37.0888 7.49 37.2421 7.49667 37.3955 7.51C37.5488 7.52333 37.6905 7.54 37.8205 7.56V4.92H38.6205V13H37.9405L37.8855 12.415H37.8305C37.6705 12.6117 37.4621 12.775 37.2055 12.905C36.9521 13.0317 36.6621 13.095 36.3355 13.095ZM36.5155 12.405C36.7588 12.405 36.9971 12.3517 37.2305 12.245C37.4638 12.1383 37.6605 11.9683 37.8205 11.735V8.24C37.7005 8.21 37.5605 8.18667 37.4005 8.17C37.2405 8.15333 37.0821 8.145 36.9255 8.145C36.2955 8.145 35.8188 8.315 35.4955 8.655C35.1755 8.995 35.0155 9.55333 35.0155 10.33C35.0155 10.8633 35.0788 11.2817 35.2055 11.585C35.3355 11.885 35.5121 12.0967 35.7355 12.22C35.9621 12.3433 36.2221 12.405 36.5155 12.405ZM44.2464 13.095C43.9631 13.095 43.6764 13.0733 43.3864 13.03C43.0964 12.99 42.8247 12.93 42.5714 12.85V4.92H43.3714V8.135H43.4164C43.5831 7.945 43.7931 7.79 44.0464 7.67C44.3031 7.55 44.5947 7.49 44.9214 7.49C45.2981 7.49 45.6431 7.57833 45.9564 7.755C46.2697 7.92833 46.5197 8.21333 46.7064 8.61C46.8964 9.00333 46.9914 9.52833 46.9914 10.185C46.9914 11.165 46.7581 11.895 46.2914 12.375C45.8281 12.855 45.1464 13.095 44.2464 13.095ZM44.3064 12.44C44.9197 12.44 45.3847 12.27 45.7014 11.93C46.0181 11.59 46.1764 11.0317 46.1764 10.255C46.1764 9.715 46.1114 9.295 45.9814 8.995C45.8514 8.695 45.6731 8.485 45.4464 8.365C45.2231 8.24167 44.9697 8.18 44.6864 8.18C44.4397 8.18 44.1981 8.23167 43.9614 8.335C43.7281 8.435 43.5314 8.59333 43.3714 8.81V12.32C43.4914 12.3533 43.6331 12.3817 43.7964 12.405C43.9631 12.4283 44.1331 12.44 44.3064 12.44ZM48.8688 15.2L49.7038 13L49.9588 12.425L51.7488 7.575H52.5538L49.6688 15.2H48.8688ZM49.4738 13L47.4188 7.575H48.2738L50.2388 13H49.4738Z" fill="#5A5A5A"/>
<defs>
<filter id="filter0_d_704_541" x="72.3672" y="4.69971" width="13.4326" height="13.3145" filterUnits="userSpaceOnUse" color-interpolation-filters="sRGB">
<feFlood flood-opacity="0" result="BackgroundImageFix"/>
<feColorMatrix in="SourceAlpha" type="matrix" values="0 0 0 0 0 0 0 0 0 0 0 0 0 0 0 0 0 0 127 0" result="hardAlpha"/>
<feMorphology radius="1" operator="dilate" in="SourceAlpha" result="effect1_dropShadow_704_541"/>
<feOffset/>
<feColorMatrix type="matrix" values="0 0 0 0 1 0 0 0 0 0.866667 0 0 0 0 0 0 0 0 1 0"/>
<feBlend mode="normal" in2="BackgroundImageFix" result="effect1_dropShadow_704_541"/>
<feBlend mode="normal" in="SourceGraphic" in2="effect1_dropShadow_704_541" result="shape"/>
</filter>
</defs>
</svg>
