<svg width="195" height="26" viewBox="0 0 195 26" fill="none" xmlns="http://www.w3.org/2000/svg">
    <path d="M0 21.5617V1.8146H13.823V5.3504H4.33636V21.5617H0ZM4.33636 13.6895V10.1537H12.462V13.6895H4.33636Z"
          fill="black"/>
    <path d="M31.9597 21.5617V6.96485H35.4421L35.7623 8.84616H35.9758C36.385 8.12566 36.9276 7.60085 37.6036 7.27173C38.2797 6.93372 39.0224 6.76471 39.8319 6.76471C40.0542 6.76471 40.2677 6.77361 40.4723 6.7914C40.6769 6.80919 40.8592 6.83588 41.0193 6.87146V10.7141C40.797 10.6697 40.5568 10.643 40.2988 10.6341C40.0498 10.6163 39.8096 10.6074 39.5783 10.6074C39.1603 10.6074 38.7378 10.6608 38.3108 10.7675C37.8838 10.8654 37.488 11.021 37.1233 11.2345C36.7586 11.4391 36.4517 11.6926 36.2027 11.995V21.5617H31.9597Z"
          fill="black"/>
    <path d="M43.2249 21.5617V6.96485H46.734L47.0142 8.45923H47.2144C47.7303 7.88994 48.3307 7.46298 49.0156 7.17834C49.7094 6.8848 50.4744 6.73803 51.3105 6.73803C52.1734 6.73803 52.9472 6.92483 53.6322 7.29842C54.326 7.66312 54.8686 8.25909 55.26 9.08633C55.6602 9.90468 55.8604 10.9899 55.8604 12.3419V21.5617H51.6975V12.7022C51.6975 11.8305 51.5329 11.23 51.2038 10.9009C50.8836 10.5629 50.4388 10.3939 49.8695 10.3939C49.5849 10.3939 49.2914 10.4384 48.9889 10.5273C48.6954 10.6163 48.4152 10.7497 48.1483 10.9276C47.8904 11.1055 47.6636 11.3323 47.4679 11.6081V21.5617H43.2249ZM59.9966 21.5617V12.7022C59.9966 11.8305 59.8187 11.23 59.4629 10.9009C59.1071 10.5629 58.649 10.3939 58.0886 10.3939C57.7773 10.3939 57.4659 10.4428 57.1546 10.5407C56.8522 10.6296 56.5631 10.772 56.2873 10.9676C56.0116 11.1633 55.7714 11.4168 55.5668 11.7282L54.7263 8.96625C55.3756 8.17459 56.1094 7.6053 56.9278 7.25839C57.7461 6.91148 58.5689 6.73803 59.3962 6.73803C60.3302 6.73803 61.1619 6.92483 61.8913 7.29842C62.6206 7.67201 63.1944 8.28133 63.6124 9.12636C64.0305 9.97139 64.2396 11.0877 64.2396 12.4754V21.5617H59.9966Z"
          fill="black"/>
    <path d="M73.5052 21.7885C72.9626 21.7885 72.3667 21.7707 71.7173 21.7351C71.0769 21.7085 70.4275 21.664 69.7693 21.6017C69.12 21.5483 68.5107 21.4816 67.9414 21.4016V2.25491C68.5551 2.12148 69.2134 2.00584 69.9161 1.908C70.6188 1.80126 71.3393 1.7212 72.0776 1.66783C72.8248 1.60556 73.5586 1.57443 74.2791 1.57443C76.236 1.57443 77.8327 1.77902 79.0691 2.18819C80.3144 2.58847 81.2306 3.19778 81.8177 4.01613C82.4048 4.82558 82.6983 5.84407 82.6983 7.07159C82.6983 7.80099 82.556 8.47257 82.2714 9.08633C81.9956 9.6912 81.5909 10.2027 81.0572 10.6207C80.5235 11.0388 79.8741 11.3234 79.1092 11.4747L79.1225 11.3012C80.3767 11.4791 81.373 11.9639 82.1112 12.7556C82.8584 13.5383 83.232 14.628 83.232 16.0245C83.232 16.9407 83.0586 17.759 82.7117 18.4795C82.3648 19.1912 81.8088 19.796 81.0438 20.2941C80.2789 20.7834 79.2737 21.157 78.0284 21.4149C76.792 21.664 75.2843 21.7885 73.5052 21.7885ZM74.6661 18.6263C75.8224 18.6263 76.7297 18.524 77.388 18.3194C78.0551 18.1148 78.5265 17.808 78.8023 17.3988C79.0869 16.9896 79.2292 16.4693 79.2292 15.8377C79.2292 14.8859 78.9313 14.1921 78.3353 13.7563C77.7482 13.3115 76.7786 13.0891 75.4266 13.0891H71.7173V9.84686H75.013C75.8936 9.84686 76.5963 9.75346 77.1211 9.56667C77.6548 9.37097 78.0373 9.08633 78.2686 8.71274C78.5087 8.33914 78.6288 7.86771 78.6288 7.29842C78.6288 6.40002 78.3442 5.75067 77.7749 5.3504C77.2056 4.94122 76.2227 4.73663 74.8262 4.73663C74.3191 4.73663 73.8522 4.75887 73.4252 4.80335C72.9982 4.83893 72.5802 4.8923 72.171 4.96346V18.5062C72.6246 18.5507 73.0472 18.5818 73.4385 18.5996C73.8299 18.6174 74.2391 18.6263 74.6661 18.6263Z"
          fill="black"/>
    <path d="M90.8878 21.8152C89.9183 21.8152 89.0555 21.6284 88.2994 21.2548C87.5433 20.8723 86.9473 20.263 86.5115 19.4269C86.0756 18.5907 85.8577 17.4833 85.8577 16.1046V6.96485H90.114V15.811C90.114 16.6916 90.2963 17.3009 90.661 17.639C91.0346 17.977 91.5194 18.146 92.1154 18.146C92.4089 18.146 92.7158 18.106 93.036 18.0259C93.3651 17.9369 93.6765 17.8035 93.97 17.6256C94.2635 17.4477 94.5215 17.2253 94.7439 16.9585V6.96485H98.9868V21.5617H95.4911L95.1975 20.094H95.0107C94.4592 20.6544 93.8321 21.0814 93.1294 21.3749C92.4267 21.6684 91.6795 21.8152 90.8878 21.8152Z"
          fill="black"/>
    <path d="M102.611 21.5617V6.96485H106.868V21.5617H102.611ZM104.733 4.84338C103.843 4.84338 103.181 4.64768 102.745 4.2563C102.318 3.86492 102.104 3.32232 102.104 2.6285C102.104 1.91689 102.318 1.36984 102.745 0.987355C103.181 0.595971 103.843 0.400279 104.733 0.400279C105.631 0.400279 106.294 0.595971 106.721 0.987355C107.148 1.36984 107.361 1.91689 107.361 2.6285C107.361 3.32232 107.148 3.86492 106.721 4.2563C106.294 4.64768 105.631 4.84338 104.733 4.84338Z"
          fill="black"/>
    <path d="M110.489 21.5617V0H114.732V21.5617H110.489Z" fill="black"/>
    <path d="M123.69 21.8152C122.614 21.8152 121.617 21.5706 120.701 21.0814C119.794 20.5921 119.064 19.8138 118.513 18.7464C117.97 17.679 117.699 16.2869 117.699 14.5702C117.699 12.8712 118.001 11.4391 118.606 10.2738C119.211 9.10857 120.101 8.22796 121.275 7.63199C122.458 7.02712 123.921 6.72469 125.665 6.72469C125.958 6.72469 126.247 6.73803 126.532 6.76471C126.825 6.7825 127.097 6.80474 127.346 6.83143V0H131.602V21.5617H128.026L127.773 20.0273H127.573C127.155 20.561 126.616 20.9924 125.958 21.3215C125.309 21.6506 124.553 21.8152 123.69 21.8152ZM124.944 18.3461C125.38 18.3461 125.811 18.2661 126.238 18.106C126.674 17.9458 127.043 17.6968 127.346 17.3588V10.1271C127.114 10.0737 126.848 10.0337 126.545 10.007C126.243 9.97139 125.945 9.9536 125.651 9.9536C124.433 9.9536 123.516 10.2827 122.903 10.941C122.289 11.5903 121.982 12.6888 121.982 14.2366C121.982 15.2951 122.107 16.1223 122.356 16.7183C122.605 17.3143 122.947 17.7368 123.383 17.9859C123.828 18.226 124.348 18.3461 124.944 18.3461Z"
          fill="black"/>
    <path d="M142.586 21.8419C140.754 21.8419 139.246 21.5795 138.063 21.0547C136.88 20.5299 135.999 19.7071 135.421 18.5863C134.852 17.4655 134.567 16.0201 134.567 14.2499C134.567 12.6399 134.829 11.2745 135.354 10.1537C135.888 9.03296 136.657 8.18348 137.663 7.6053C138.677 7.02712 139.904 6.73803 141.345 6.73803C142.724 6.73803 143.885 7.03157 144.828 7.61864C145.77 8.19682 146.482 9.0552 146.962 10.1938C147.443 11.3323 147.683 12.7289 147.683 14.3834V15.4908H136.995V13.0491H144.401L143.72 13.3026C143.72 12.3419 143.631 11.577 143.453 11.0077C143.275 10.4384 143.004 10.0337 142.639 9.79349C142.284 9.55332 141.839 9.43324 141.305 9.43324C140.763 9.43324 140.304 9.55332 139.931 9.79349C139.566 10.0337 139.286 10.4384 139.09 11.0077C138.903 11.5681 138.81 12.3286 138.81 13.2893V14.9971C138.81 15.8955 138.939 16.6116 139.197 17.1453C139.464 17.6701 139.913 18.0481 140.545 18.2794C141.185 18.5107 142.066 18.6263 143.186 18.6263C143.756 18.6263 144.352 18.5863 144.974 18.5062C145.606 18.4173 146.237 18.3016 146.869 18.1593V21.3482C146.095 21.5261 145.357 21.6506 144.654 21.7218C143.96 21.8019 143.271 21.8419 142.586 21.8419Z"
          fill="black"/>
    <path d="M150.487 21.5617V6.96485H153.969L154.289 8.84616H154.503C154.912 8.12566 155.455 7.60085 156.131 7.27173C156.807 6.93372 157.549 6.76471 158.359 6.76471C158.581 6.76471 158.795 6.77361 158.999 6.7914C159.204 6.80919 159.386 6.83588 159.546 6.87146V10.7141C159.324 10.6697 159.084 10.643 158.826 10.6341C158.577 10.6163 158.337 10.6074 158.105 10.6074C157.687 10.6074 157.265 10.6608 156.838 10.7675C156.411 10.8654 156.015 11.021 155.65 11.2345C155.286 11.4391 154.979 11.6926 154.73 11.995V21.5617H150.487Z"
          fill="black"/>
    <g filter="url(#filter0_d_28_11989)">
        <rect x="14.7771" y="7.48712" width="14.8627" height="14.8627" rx="7.43134" fill="white"/>
        <rect x="15.7771" y="8.48712" width="12.8627" height="12.8627" rx="6.43134" stroke="#0B0C0C" stroke-width="2"/>
    </g>
    <rect x="18.3867" y="11.0965" width="7.64366" height="7.64366" rx="3.82183" fill="#0B0C0C"/>
    <path d="M160.582 21.7888C160.312 21.7888 160.095 21.7111 159.929 21.5557C159.769 21.4003 159.688 21.1905 159.688 20.9264C159.688 20.6622 159.769 20.4525 159.929 20.2971C160.09 20.1417 160.307 20.064 160.582 20.064C160.851 20.064 161.066 20.1443 161.227 20.3049C161.392 20.4602 161.475 20.6674 161.475 20.9264C161.475 21.1854 161.392 21.3951 161.227 21.5557C161.061 21.7111 160.846 21.7888 160.582 21.7888Z"
          fill="black"/>
    <path d="M166.313 25.2616C165.925 25.2616 165.508 25.2279 165.062 25.1606C164.622 25.0984 164.21 25.0052 163.827 24.8809V23.8398C164.267 23.9745 164.687 24.0729 165.085 24.135C165.489 24.2024 165.875 24.236 166.243 24.236C167.155 24.236 167.828 24.0392 168.263 23.6456C168.698 23.2571 168.916 22.5812 168.916 21.6178V20.7943H168.846C168.592 21.0895 168.266 21.3304 167.867 21.5168C167.473 21.7033 167.023 21.7965 166.515 21.7965C165.93 21.7965 165.394 21.6619 164.907 21.3925C164.42 21.118 164.029 20.6778 163.734 20.0718C163.438 19.4606 163.291 18.65 163.291 17.64C163.291 16.1277 163.651 14.9985 164.371 14.2527C165.096 13.5017 166.16 13.1262 167.564 13.1262C167.854 13.1262 168.149 13.1417 168.45 13.1728C168.755 13.2039 169.053 13.2479 169.343 13.3049C169.633 13.3618 169.905 13.4292 170.159 13.5069V21.4314C170.159 22.7987 169.838 23.7777 169.195 24.3681C168.553 24.9637 167.592 25.2616 166.313 25.2616ZM166.88 20.7322C167.258 20.7322 167.629 20.6519 167.991 20.4913C168.359 20.3308 168.667 20.0847 168.916 19.7532V14.3149C168.729 14.2682 168.509 14.2294 168.255 14.1983C168.001 14.1621 167.737 14.1439 167.463 14.1439C166.52 14.1439 165.8 14.4081 165.303 14.9364C164.806 15.4595 164.557 16.3219 164.557 17.5235C164.557 18.3574 164.658 19.0074 164.86 19.4736C165.062 19.9397 165.337 20.266 165.684 20.4525C166.036 20.6389 166.435 20.7322 166.88 20.7322Z"
          fill="black"/>
    <path d="M176.101 21.8354C175.376 21.8354 174.744 21.6852 174.205 21.3848C173.667 21.0792 173.25 20.6079 172.955 19.9708C172.659 19.3285 172.512 18.4972 172.512 17.4769C172.512 16.4669 172.657 15.6408 172.947 14.9985C173.242 14.3563 173.659 13.885 174.198 13.5846C174.736 13.279 175.371 13.1262 176.101 13.1262C176.831 13.1262 177.466 13.279 178.005 13.5846C178.543 13.885 178.958 14.3563 179.248 14.9985C179.543 15.6356 179.69 16.4617 179.69 17.4769C179.69 18.4869 179.54 19.313 179.24 19.9552C178.945 20.5975 178.528 21.0714 177.989 21.377C177.456 21.6826 176.826 21.8354 176.101 21.8354ZM176.101 20.8254C176.578 20.8254 176.989 20.7218 177.336 20.5146C177.683 20.3074 177.95 19.963 178.137 19.4813C178.328 18.9945 178.424 18.3341 178.424 17.5002C178.424 16.6508 178.328 15.9826 178.137 15.4958C177.95 15.0037 177.681 14.6567 177.329 14.4547C176.982 14.2475 176.572 14.1439 176.101 14.1439C175.625 14.1439 175.213 14.2475 174.866 14.4547C174.519 14.6567 174.25 15.0011 174.058 15.488C173.871 15.9697 173.778 16.6275 173.778 17.4614C173.778 18.3056 173.871 18.9737 174.058 19.4658C174.25 19.9527 174.519 20.3023 174.866 20.5146C175.213 20.7218 175.625 20.8254 176.101 20.8254Z"
          fill="black"/>
    <path d="M183.994 21.6878L180.8 13.2583H182.129L184.903 20.7943H184.747L187.528 13.2583H188.779L185.586 21.6878H183.994Z"
          fill="black"/>
    <path d="M193.703 21.8354C192.843 21.8354 192.175 21.6152 191.698 21.175C191.222 20.7296 190.983 20.02 190.983 19.0463V13.2583L191.185 10.1895H192.226V18.8443C192.226 19.5538 192.372 20.0511 192.662 20.3359C192.957 20.6208 193.394 20.7632 193.975 20.7632C194.13 20.7632 194.29 20.7529 194.456 20.7322C194.622 20.7063 194.803 20.6726 195 20.6312V21.68C194.793 21.7318 194.581 21.7706 194.363 21.7965C194.145 21.8224 193.925 21.8354 193.703 21.8354ZM189.399 14.2838V13.2583H194.876V14.2838H189.399Z"
          fill="black"/>
    <defs>
        <filter id="filter0_d_28_11989" x="13.7771" y="6.48712" width="16.8628" height="16.8627"
                filterUnits="userSpaceOnUse" color-interpolation-filters="sRGB">
            <feFlood flood-opacity="0" result="BackgroundImageFix"/>
            <feColorMatrix in="SourceAlpha" type="matrix" values="0 0 0 0 0 0 0 0 0 0 0 0 0 0 0 0 0 0 127 0"
                           result="hardAlpha"/>
            <feMorphology radius="1" operator="dilate" in="SourceAlpha" result="effect1_dropShadow_28_11989"/>
            <feOffset/>
            <feColorMatrix type="matrix" values="0 0 0 0 1 0 0 0 0 0.866667 0 0 0 0 0 0 0 0 1 0"/>
            <feBlend mode="normal" in2="BackgroundImageFix" result="effect1_dropShadow_28_11989"/>
            <feBlend mode="normal" in="SourceGraphic" in2="effect1_dropShadow_28_11989" result="shape"/>
        </filter>
    </defs>
</svg>
